<?xml version="1.0" encoding="utf-8"?>
<!-- Generator: Adobe Illustrator 27.3.1, SVG Export Plug-In . SVG Version: 6.00 Build 0)  -->
<svg version="1.1" id="레이어_1" xmlns="http://www.w3.org/2000/svg" xmlns:xlink="http://www.w3.org/1999/xlink" x="0px"
	 y="0px" viewBox="0 0 141.7 24" style="enable-background:new 0 0 141.7 24;" xml:space="preserve">
<style type="text/css">
	.st0{fill:#F0F2F5;}
</style>
<g>
	<g>
		<path class="st0" d="M47.6,9.6c0,3.2-2.3,5.2-6.2,5.2h-3.7v4.5h-2.1V4.5h5.8C45.2,4.5,47.6,6.4,47.6,9.6z M45.5,9.6
			c0-2.1-1.4-3.3-4.1-3.3h-3.6v6.6h3.6C44,12.9,45.5,11.7,45.5,9.6z"/>
		<path class="st0" d="M49.3,4.5h2.3v14.7h-2.3V4.5z"/>
		<path class="st0" d="M58.2,8.7c1.4,0,2.6,0.5,3.4,1.2V9h2.3v10.2h-2.3v-1c-0.7,0.8-2,1.3-3.4,1.3c-3,0-5.1-2.2-5.1-5.4
			C53.1,10.8,55.2,8.7,58.2,8.7z M58.7,17.4c1.3,0,2.4-0.6,2.9-1.6v-3.5c-0.5-0.9-1.6-1.6-2.9-1.6c-1.9,0-3.2,1.3-3.2,3.3
			C55.4,16.1,56.7,17.4,58.7,17.4z"/>
		<path class="st0" d="M75.5,13v6.2h-2.3v-5.8c0-1.7-0.9-2.6-2.5-2.6c-1.1,0-2.1,0.5-2.6,1.3v7.1h-2.3V9h2.3v0.9
			c0.8-0.7,1.9-1.2,3.2-1.2C73.8,8.7,75.5,10.3,75.5,13z"/>
		<path class="st0" d="M83.8,4.5h2.3l6.4,14.7h-2.6l-1.4-3.4h-7L80,19.2h-2.6L83.8,4.5z M87.6,13.9l-2.7-6.4l-2.7,6.4H87.6z"/>
		<path class="st0" d="M102.9,17.1v2.1h-8.5V4.5h2.4v12.6H102.9z"/>
		<path class="st0" d="M109,8.7c1.4,0,2.6,0.5,3.4,1.2V9h2.3v10.2h-2.3v-1c-0.7,0.8-2,1.3-3.4,1.3c-3,0-5.1-2.2-5.1-5.4
			C104,10.8,106,8.7,109,8.7z M109.5,17.4c1.3,0,2.4-0.6,2.9-1.6v-3.5c-0.5-0.9-1.6-1.6-2.9-1.6c-1.9,0-3.2,1.3-3.2,3.3
			C106.3,16.1,107.6,17.4,109.5,17.4z"/>
		<path class="st0" d="M116.6,4.5h2.3v5.5c0.7-0.8,2-1.2,3.4-1.2c3,0,5.1,2.1,5.1,5.4c0,3.2-2.1,5.4-5.1,5.4c-1.4,0-2.6-0.5-3.4-1.3
			v1h-2.3V4.5z M121.8,17.4c1.9,0,3.2-1.3,3.2-3.3c0-2-1.3-3.3-3.2-3.3c-1.3,0-2.4,0.6-2.9,1.6v3.5
			C119.4,16.8,120.6,17.4,121.8,17.4z"/>
		<path class="st0" d="M128.2,18.3l0.7-1.7c0.9,0.7,2.2,1.1,3.4,1.1c1.3,0,2-0.4,2-1.2c0-1-0.9-1.1-1.4-1.2l-1.7-0.4
			c-1.6-0.4-2.7-1.2-2.7-2.9c0-1.9,1.6-3.2,4-3.2c1.4,0,2.9,0.4,3.8,1.1l-0.7,1.7c-0.7-0.5-1.9-0.9-2.9-0.9c-1.2,0-1.8,0.5-1.8,1.2
			c0,0.8,0.8,1,1.3,1.1l1.9,0.5c1.9,0.5,2.7,1.5,2.7,2.9c0,2-1.7,3.3-4.3,3.3C130.7,19.5,129.2,19.1,128.2,18.3z"/>
		<path class="st0" d="M138.1,17.7c0-1.1,0.8-1.8,1.9-1.8c1,0,1.8,0.7,1.8,1.8c0,1.1-0.8,1.8-1.8,1.8
			C138.9,19.5,138.1,18.8,138.1,17.7z"/>
	</g>
	<g>
		<g>
			<defs>
				<path id="SVGID_1_" d="M24.5,14.6h-7.8c-1.1,0-1.9-1.1-1.5-2.1l3.9-11.3c0.1-0.4,0.6-0.4,0.8,0L24.5,14.6z M25.2,16.7h-10
					c-1,0-1.8,0.6-2.2,1.5l-2,5.7h16.6L25.2,16.7z M1.7,19L0,24h8.7l1.8-5.2c0.3-1-0.4-2-1.4-2H4.9C3.4,16.7,2.2,17.6,1.7,19z
					 M16.5,0h-5.7C9.3,0,7.9,1,7.4,2.4l-3.2,9.3c-0.5,1.5,0.6,3,2.1,3h3c1.9,0,3.6-1.2,4.1-3.1l3.4-11C17,0.3,16.8,0,16.5,0z"/>
			</defs>
			<clipPath id="SVGID_00000178176133367208625280000005362852864626147260_">
				<use xlink:href="#SVGID_1_"  style="overflow:visible;"/>
			</clipPath>
			<g style="clip-path:url(#SVGID_00000178176133367208625280000005362852864626147260_);">
				
					<image style="overflow:visible;" width="124" height="108" xlink:href="87EADC50.png"  transform="matrix(0.24 0 0 0.24 -0.72 -0.72)">
				</image>
			</g>
		</g>
	</g>
</g>
</svg>
